<svg width="24" height="25" viewBox="0 0 24 25" fill="none" xmlns="http://www.w3.org/2000/svg">
<path fill-rule="evenodd" clip-rule="evenodd" d="M3.51017 10.2885L2.43587 13.8779C2.33788 14.2053 2.4452 14.564 2.70175 14.7663L12 22.1L3.51017 10.2885Z" fill="#FCA326"/>
<path fill-rule="evenodd" clip-rule="evenodd" d="M20.4898 10.2885L21.5641 13.8779C21.6621 14.2053 21.5548 14.564 21.2983 14.7663L12 22.1L20.4898 10.2885Z" fill="#FCA326"/>
<path fill-rule="evenodd" clip-rule="evenodd" d="M12 22.1L8.46474 10.2884H3.51016L12 22.1Z" fill="#FC6D26"/>
<path fill-rule="evenodd" clip-rule="evenodd" d="M12 22.1L15.5353 10.2884H20.4898L12 22.1Z" fill="#FC6D26"/>
<path fill-rule="evenodd" clip-rule="evenodd" d="M20.4897 10.2885H15.5352L17.6645 3.17454C17.774 2.80844 18.251 2.80854 18.3605 3.17454L20.4897 10.2885Z" fill="#E24329"/>
<path fill-rule="evenodd" clip-rule="evenodd" d="M3.51028 10.2885H8.46486L6.33556 3.17454C6.22604 2.80844 5.74901 2.80854 5.63949 3.17454L3.51028 10.2885Z" fill="#E24329"/>
<path fill-rule="evenodd" clip-rule="evenodd" d="M11.9999 22.1L15.5352 10.2885H8.46469L11.9999 22.1Z" fill="#E24329"/>
</svg>
