<svg width="24" height="25" viewBox="0 0 24 25" fill="none" xmlns="http://www.w3.org/2000/svg">
<path d="M6.98918 14.3776L6.36263 16.7167L4.07258 16.7651C3.3882 15.4957 3 14.0434 3 12.5C3 11.0076 3.36295 9.60023 4.00631 8.36101H4.0068L6.04559 8.73479L6.9387 10.7613C6.75177 11.3063 6.64989 11.8913 6.64989 12.5C6.64996 13.1607 6.76963 13.7937 6.98918 14.3776Z" fill="#FBBB00"/>
<path d="M20.8427 10.8186C20.9461 11.3631 21 11.9253 21 12.5C21 13.1443 20.9323 13.7728 20.8032 14.3791C20.3651 16.4422 19.2203 18.2436 17.6344 19.5185L17.6339 19.518L15.066 19.387L14.7025 17.1182C15.7548 16.501 16.5772 15.5352 17.0104 14.3791H12.1979V10.8186H17.0806H20.8427Z" fill="#518EF8"/>
<path d="M17.6339 19.518L17.6344 19.5185C16.0921 20.7582 14.1328 21.5 12 21.5C8.5726 21.5 5.59272 19.5843 4.0726 16.7651L6.9892 14.3777C7.74924 16.4061 9.706 17.8501 12 17.8501C12.986 17.8501 13.9098 17.5835 14.7025 17.1182L17.6339 19.518Z" fill="#28B446"/>
<path d="M17.7446 5.57197L14.829 7.95894C14.0086 7.44615 13.0389 7.14992 11.9999 7.14992C9.65399 7.14992 7.66063 8.66013 6.93866 10.7613L4.00673 8.36098H4.00624C5.50411 5.47307 8.52157 3.5 11.9999 3.5C14.1837 3.5 16.1859 4.27787 17.7446 5.57197Z" fill="#F14336"/>
</svg>
